<svg xmlns="http://www.w3.org/2000/svg" width="290" height="161" viewBox="0 0 290 161"><g transform="translate(-453 -808)"><g transform="translate(-154 91.526)"><rect width="23" height="95" rx="11.5" transform="translate(788 836.474) rotate(90)" fill="#1360fc"/><path d="M11.5,0A11.5,11.5,0,0,1,23,11.5v72a11.5,11.5,0,0,1-23,0v-72A11.5,11.5,0,0,1,11.5,0Z" transform="translate(788 836.474) rotate(90)" fill="#1360fc"/><rect width="17" height="73" rx="8.5" transform="translate(777 842.474) rotate(90)" fill="#537573"/><path d="M8.5,4A4.505,4.505,0,0,0,4,8.5v56a4.5,4.5,0,0,0,9,0V8.5A4.505,4.505,0,0,0,8.5,4m0-4A8.5,8.5,0,0,1,17,8.5v56a8.5,8.5,0,0,1-17,0V8.5A8.5,8.5,0,0,1,8.5,0Z" transform="translate(777 842.474) rotate(90)" fill="#1948c8"/><g transform="translate(706 716.563)"><g style="mix-blend-mode:darken;isolation:isolate"><rect width="23" height="161" rx="11.5" transform="translate(0 -0.089)" fill="#1360fc"/><path d="M11.5,0A11.5,11.5,0,0,1,23,11.5v138a11.5,11.5,0,0,1-23,0V11.5A11.5,11.5,0,0,1,11.5,0Z" transform="translate(0 -0.089)" fill="#1360fc"/></g><rect width="17" height="140" rx="8.5" transform="translate(6 10.911)" fill="#537573"/><path d="M8.5,4A4.505,4.505,0,0,0,4,8.5v123a4.5,4.5,0,0,0,9,0V8.5A4.505,4.505,0,0,0,8.5,4m0-4A8.5,8.5,0,0,1,17,8.5v123a8.5,8.5,0,0,1-17,0V8.5A8.5,8.5,0,0,1,8.5,0Z" transform="translate(6 10.911)" fill="#1948c8"/></g></g><circle cx="27" cy="27" r="27" transform="translate(465 901)" fill="#1360fc"/><path d="M27,1A26.007,26.007,0,0,0,16.88,50.957,26.007,26.007,0,0,0,37.12,3.043,25.836,25.836,0,0,0,27,1m0-1A27,27,0,1,1,0,27,27,27,0,0,1,27,0Z" transform="translate(465 901)" fill="#1360fc"/><ellipse cx="23.5" cy="24" rx="23.5" ry="24" transform="translate(465 907)" fill="#537573"/><path d="M23.5,4A19.133,19.133,0,0,0,9.741,9.828a20.363,20.363,0,0,0,0,28.344,19.155,19.155,0,0,0,27.518,0,20.363,20.363,0,0,0,0-28.344A19.133,19.133,0,0,0,23.5,4m0-4A23.754,23.754,0,0,1,47,24,23.754,23.754,0,0,1,23.5,48,23.754,23.754,0,0,1,0,24,23.754,23.754,0,0,1,23.5,0Z" transform="translate(465 907)" fill="#1948c8"/><circle cx="43" cy="43" r="43" transform="translate(453 821)" fill="#1360fc"/><path d="M43,1A42.011,42.011,0,0,0,26.652,81.7a42.011,42.011,0,0,0,32.7-77.4A41.736,41.736,0,0,0,43,1m0-1A43,43,0,1,1,0,43,43,43,0,0,1,43,0Z" transform="translate(453 821)" fill="#1360fc"/><ellipse cx="33" cy="38" rx="33" ry="38" transform="translate(453 831)" fill="#537573"/><path d="M33,4C17.009,4,4,19.252,4,38S17.009,72,33,72,62,56.748,62,38,48.991,4,33,4m0-4C51.225,0,66,17.013,66,38S51.225,76,33,76,0,58.987,0,38,14.775,0,33,0Z" transform="translate(453 831)" fill="#1948c8"/><g transform="translate(-253 92)"><g style="mix-blend-mode:darken;isolation:isolate"><rect width="23" height="161" rx="11.5" transform="translate(706 716)" fill="#1360fc"/><path d="M11.5,0A11.5,11.5,0,0,1,23,11.5v138a11.5,11.5,0,0,1-23,0V11.5A11.5,11.5,0,0,1,11.5,0Z" transform="translate(706 716)" fill="#1360fc"/></g><rect width="17" height="140" rx="8.5" transform="translate(712 727)" fill="#537573"/><path d="M8.5,4A4.505,4.505,0,0,0,4,8.5v123a4.5,4.5,0,0,0,9,0V8.5A4.505,4.505,0,0,0,8.5,4m0-4A8.5,8.5,0,0,1,17,8.5v123a8.5,8.5,0,0,1-17,0V8.5A8.5,8.5,0,0,1,8.5,0Z" transform="translate(712 727)" fill="#1948c8"/></g><circle cx="46" cy="46" r="46" transform="translate(651 877)" fill="#1360fc"/><path d="M46,1A45.012,45.012,0,0,0,28.484,87.464,45.012,45.012,0,0,0,63.516,4.536,44.717,44.717,0,0,0,46,1m0-1A46,46,0,1,1,0,46,46,46,0,0,1,46,0Z" transform="translate(651 877)" fill="#1360fc"/><circle cx="38" cy="38" r="38" transform="translate(651 893)" fill="#537573"/><path d="M38,4A34.01,34.01,0,0,0,24.767,69.33,34.01,34.01,0,0,0,51.233,6.67,33.783,33.783,0,0,0,38,4m0-4A38,38,0,1,1,0,38,38,38,0,0,1,38,0Z" transform="translate(651 893)" fill="#1948c8"/></g></svg>